<?xml version="1.0" encoding="UTF-8" standalone="no"?>
<!-- Created with Inkscape (http://www.inkscape.org/) -->

<svg
   width="8mm"
   height="8mm"
   viewBox="0 0 8 8"
   version="1.1"
   id="svg1"
   xml:space="preserve"
   xmlns="http://www.w3.org/2000/svg"
   xmlns:svg="http://www.w3.org/2000/svg"><defs
     id="defs1"><linearGradient
       id="swatch1022"><stop
         style="stop-color:#000000;stop-opacity:1;"
         offset="0"
         id="stop1022" /></linearGradient><linearGradient
       id="swatch1008"><stop
         style="stop-color:#000000;stop-opacity:1;"
         offset="0"
         id="stop1008" /></linearGradient></defs><g
     id="layer1"><g
       id="g6483"
       transform="matrix(1.8944671,0,0,1.8704007,3.5151903,-1.7542677)"><path
         style="fill:#000000;fill-opacity:0"
         d="M 2.1080308,4.9307649 H 2.3726141 V 5.1953483 H 2.1080308"
         id="path6738" /><path
         style="fill:#000000;fill-opacity:0"
         d="M 1.8434475,4.9307649 H 2.1080308 V 5.1953483 H 1.8434475"
         id="path6737" /><path
         style="fill:#000000;fill-opacity:0"
         d="M 1.5788642,4.9307649 H 1.8434475 V 5.1953483 H 1.5788642"
         id="path6736" /><path
         style="fill:#000000;fill-opacity:0"
         d="M 1.3142809,4.9307649 H 1.5788642 V 5.1953483 H 1.3142809"
         id="path6735" /><path
         style="fill:#000000;fill-opacity:0"
         d="M 1.0496975,4.9307649 H 1.3142809 V 5.1953483 H 1.0496975"
         id="path6734" /><path
         style="fill:#000000;fill-opacity:1"
         d="M 0.78511423,4.9307649 H 1.0496975 V 5.1953483 H 0.78511423"
         id="path6733" /><path
         style="fill:#000000;fill-opacity:1"
         d="M 0.52053091,4.9307649 H 0.78511423 V 5.1953483 H 0.52053091"
         id="path6732" /><path
         style="fill:#000000;fill-opacity:1"
         d="M 0.25594759,4.9307649 H 0.52053091 V 5.1953483 H 0.25594759"
         id="path6731" /><path
         style="fill:#000000;fill-opacity:1"
         d="M -0.00863573,4.9307649 H 0.25594759 V 5.1953483 H -0.00863573"
         id="path6730" /><path
         style="fill:#000000;fill-opacity:1"
         d="m -0.27321905,4.9307649 h 0.26458332 v 0.2645834 h -0.26458332"
         id="path6729" /><path
         style="fill:#000000;fill-opacity:1"
         d="m -0.53780237,4.9307649 h 0.26458332 v 0.2645834 h -0.26458332"
         id="path6728" /><path
         style="fill:#000000;fill-opacity:0"
         d="m -0.80238569,4.9307649 h 0.26458332 v 0.2645834 h -0.26458332"
         id="path6727" /><path
         style="fill:#000000;fill-opacity:0"
         d="m -1.066969,4.9307649 h 0.26458331 V 5.1953483 H -1.066969"
         id="path6726" /><path
         style="fill:#000000;fill-opacity:0"
         d="M -1.3315523,4.9307649 H -1.066969 V 5.1953483 H -1.3315523"
         id="path6725" /><path
         style="fill:#000000;fill-opacity:0"
         d="m -1.5961356,4.9307649 h 0.2645833 v 0.2645834 h -0.2645833"
         id="path6724" /><path
         style="fill:#000000;fill-opacity:0"
         d="m -1.860719,4.9307649 h 0.2645834 V 5.1953483 H -1.860719"
         id="path6723" /><path
         style="fill:#000000;fill-opacity:0"
         d="M 2.1080308,4.6661816 H 2.3726141 V 4.9307649 H 2.1080308"
         id="path6722" /><path
         style="fill:#000000;fill-opacity:0"
         d="M 1.8434475,4.6661816 H 2.1080308 V 4.9307649 H 1.8434475"
         id="path6721" /><path
         style="fill:#000000;fill-opacity:0"
         d="M 1.5788642,4.6661816 H 1.8434475 V 4.9307649 H 1.5788642"
         id="path6720" /><path
         style="fill:#000000;fill-opacity:0"
         d="M 1.3142809,4.6661816 H 1.5788642 V 4.9307649 H 1.3142809"
         id="path6719" /><path
         style="fill:#000000;fill-opacity:1"
         d="M 1.0496975,4.6661816 H 1.3142809 V 4.9307649 H 1.0496975"
         id="path6718" /><path
         style="fill:#000000;fill-opacity:1"
         d="M 0.85126006,4.7323275 1.0496975,4.6661816 V 4.9307649 H 0.78511423"
         id="path6717" /><path
         style="fill:#000000;fill-opacity:1"
         d="M 0.52053091,4.6661816 0.7189684,4.6000358 0.85126006,4.7323275 0.78511423,4.9307649 H 0.52053091"
         id="path6716" /><path
         style="fill:#000000;fill-opacity:1"
         d="M 0.25594759,4.6661816 H 0.52053091 V 4.9307649 H 0.25594759"
         id="path6715" /><path
         style="fill:#000000;fill-opacity:1"
         d="M -0.00863573,4.6661816 H 0.25594759 V 4.9307649 H -0.00863573"
         id="path6714" /><path
         style="fill:#000000;fill-opacity:1"
         d="m -0.33936488,4.7323275 0.13229166,-0.1322917 0.19843749,0.066146 v 0.2645833 h -0.26458332"
         id="path6713" /><path
         style="fill:#000000;fill-opacity:1"
         d="m -0.53780237,4.6661816 0.19843749,0.066146 0.0661458,0.1984374 H -0.5378024"
         id="path6712" /><path
         style="fill:#000000;fill-opacity:1"
         d="m -0.80238569,4.6661816 h 0.26458332 v 0.2645833 h -0.26458332"
         id="path6711" /><path
         style="fill:#000000;fill-opacity:0"
         d="m -1.066969,4.6661816 h 0.26458331 V 4.9307649 H -1.066969"
         id="path6710" /><path
         style="fill:#000000;fill-opacity:0"
         d="M -1.3315523,4.6661816 H -1.066969 V 4.9307649 H -1.3315523"
         id="path6709" /><path
         style="fill:#000000;fill-opacity:0"
         d="m -1.5961356,4.6661816 h 0.2645833 v 0.2645833 h -0.2645833"
         id="path6708" /><path
         style="fill:#000000;fill-opacity:0"
         d="m -1.860719,4.6661816 h 0.2645834 V 4.9307649 H -1.860719"
         id="path6707" /><path
         style="fill:#000000;fill-opacity:0"
         d="M 2.1080308,4.4015983 H 2.3726141 V 4.6661816 H 2.1080308"
         id="path6706" /><path
         style="fill:#000000;fill-opacity:0"
         d="M 1.8434475,4.4015983 H 2.1080308 V 4.6661816 H 1.8434475"
         id="path6705" /><path
         style="fill:#000000;fill-opacity:0"
         d="M 1.5788642,4.4015983 H 1.8434475 V 4.6661816 H 1.5788642"
         id="path6704" /><path
         style="fill:#000000;fill-opacity:1"
         d="M 1.3142809,4.4015983 H 1.5788642 V 4.6661816 H 1.3142809"
         id="path6703" /><path
         style="fill:#000000;fill-opacity:1"
         d="M 1.1158434,4.4677441 1.3142809,4.4015983 V 4.6661816 H 1.0496975"
         id="path6702" /><path
         style="fill:#000000;fill-opacity:1"
         d="M 0.85126006,4.4677441 0.98355172,4.3354525 1.1158434,4.4677441 1.0496975,4.6661816 0.85126006,4.7323275 0.7189684,4.6000358"
         id="path6701" /><path
         style="fill:#f888c8;fill-opacity:1"
         d="M 0.52053091,4.4015983 0.7189684,4.3354525 0.85126006,4.4677441 0.7189684,4.6000358 0.52053091,4.6661816"
         id="path6700" /><path
         style="fill:#f888c8;fill-opacity:1"
         d="M 0.25594759,4.4015983 H 0.52053091 V 4.6661816 H 0.25594759"
         id="path6699" /><path
         style="fill:#f888d0;fill-opacity:1"
         d="M -0.00863573,4.4015983 H 0.25594759 V 4.6661816 H -0.00863573"
         id="path6698" /><path
         style="fill:#f888d0;fill-opacity:1"
         d="m -0.33936488,4.4677441 0.13229166,-0.1322916 0.19843749,0.066146 v 0.2645833 l -0.19843749,-0.066146"
         id="path6697" /><path
         style="fill:#000000;fill-opacity:1"
         d="m -0.6039482,4.4677441 0.13229166,-0.1322916 0.13229166,0.1322916 0.13229166,0.1322917 -0.13229166,0.1322917 -0.19843749,-0.066146"
         id="path6696" /><path
         style="fill:#000000;fill-opacity:1"
         d="m -0.80238569,4.4015983 0.19843749,0.066146 0.0661458,0.1984375 h -0.26458332"
         id="path6695" /><path
         style="fill:#000000;fill-opacity:1"
         d="m -1.066969,4.4015983 h 0.26458331 V 4.6661816 H -1.066969"
         id="path6694" /><path
         style="fill:#000000;fill-opacity:0"
         d="M -1.3315523,4.4015983 H -1.066969 V 4.6661816 H -1.3315523"
         id="path6693" /><path
         style="fill:#000000;fill-opacity:0"
         d="m -1.5961356,4.4015983 h 0.2645833 v 0.2645833 h -0.2645833"
         id="path6692" /><path
         style="fill:#000000;fill-opacity:0"
         d="m -1.860719,4.4015983 h 0.2645834 V 4.6661816 H -1.860719"
         id="path6691" /><path
         style="fill:#000000;fill-opacity:0"
         d="M 2.1080308,4.137015 H 2.3726141 V 4.4015983 H 2.1080308"
         id="path6690" /><path
         style="fill:#000000;fill-opacity:0"
         d="M 1.8434475,4.137015 H 2.1080308 V 4.4015983 H 1.8434475"
         id="path6689" /><path
         style="fill:#000000;fill-opacity:1"
         d="M 1.5788642,4.137015 H 1.8434475 V 4.4015983 H 1.5788642"
         id="path6688" /><path
         style="fill:#000000;fill-opacity:1"
         d="M 1.3804267,4.2031608 1.5788642,4.137015 V 4.4015983 H 1.3142809"
         id="path6687" /><path
         style="fill:#000000;fill-opacity:1"
         d="M 1.1158434,4.2031608 1.248135,4.0708692 1.3804267,4.2031608 1.3142809,4.4015983 1.1158434,4.4677441 0.98355172,4.3354525"
         id="path6686" /><path
         style="fill:#f888c8;fill-opacity:1"
         d="M 0.78511423,4.137015 0.98355172,4.0708692 1.1158434,4.2031608 0.98355172,4.3354525 0.85126006,4.4677441 0.7189684,4.3354525"
         id="path6685" /><path
         style="fill:#f888c8;fill-opacity:1"
         d="M 0.58667674,4.2031608 0.78511423,4.137015 0.7189684,4.3354525 0.52053091,4.4015983"
         id="path6684" /><path
         style="fill:#f888c8;fill-opacity:1"
         d="M 0.25594759,4.137015 0.45438508,4.0708692 0.58667674,4.2031608 0.52053091,4.4015983 H 0.25594759"
         id="path6683" /><path
         style="fill:#f888d0;fill-opacity:1"
         d="M -0.07478156,4.2031608 0.0575101,4.0708692 0.25594759,4.137015 v 0.2645833 h -0.26458332"
         id="path6682" /><path
         style="fill:#f888d0;fill-opacity:1"
         d="m -0.27321905,4.137015 0.19843749,0.066146 0.06614583,0.1984375 -0.19843749,-0.066146"
         id="path6681" /><path
         style="fill:#f888d0;fill-opacity:1"
         d="m -0.6039482,4.2031608 0.13229166,-0.1322916 0.19843749,0.066146 0.0661458,0.1984375 -0.13229166,0.1322916 -0.13229166,-0.1322916"
         id="path6680" /><path
         style="fill:#000000;fill-opacity:1"
         d="M -0.86853152,4.2031608 -0.73623986,4.0708692 -0.6039482,4.2031608 -0.47165654,4.3354525 -0.6039482,4.4677441 -0.80238569,4.4015983"
         id="path6679" /><path
         style="fill:#000000;fill-opacity:1"
         d="m -1.066969,4.137015 0.19843748,0.066146 0.0661458,0.1984375 H -1.066969"
         id="path6678" /><path
         style="fill:#000000;fill-opacity:1"
         d="M -1.3315523,4.137015 H -1.066969 V 4.4015983 H -1.3315523"
         id="path6677" /><path
         style="fill:#000000;fill-opacity:0"
         d="m -1.5961356,4.137015 h 0.2645833 v 0.2645833 h -0.2645833"
         id="path6676" /><path
         style="fill:#000000;fill-opacity:0"
         d="m -1.860719,4.137015 h 0.2645834 V 4.4015983 H -1.860719"
         id="path6675" /><path
         style="fill:#000000;fill-opacity:0"
         d="M 2.1080308,3.8724317 H 2.3726141 V 4.137015 H 2.1080308"
         id="path6674" /><path
         style="fill:#000000;fill-opacity:0"
         d="M 1.8434475,3.8724317 H 2.1080308 V 4.137015 H 1.8434475"
         id="path6673" /><path
         style="fill:#000000;fill-opacity:1"
         d="M 1.5788642,3.8724317 H 1.8434475 V 4.137015 H 1.5788642"
         id="path6672" /><path
         style="fill:#000000;fill-opacity:1"
         d="M 1.3142809,3.8724317 H 1.5788642 V 4.137015 L 1.3804267,4.2031608 1.248135,4.0708692"
         id="path6671" /><path
         style="fill:#f888c8;fill-opacity:1"
         d="M 1.0496975,3.8724317 H 1.3142809 L 1.248135,4.0708692 1.1158434,4.2031608 0.98355172,4.0708692"
         id="path6670" /><path
         style="fill:#f888c8;fill-opacity:1"
         d="M 0.85126006,3.9385775 1.0496975,3.8724317 0.98355172,4.0708692 0.78511423,4.137015"
         id="path6669" /><path
         style="fill:#f888c8;fill-opacity:1"
         d="M 0.58667674,3.9385775 0.7189684,3.8062858 0.85126006,3.9385775 0.78511423,4.137015 0.58667674,4.2031608 0.45438508,4.0708692"
         id="path6668" /><path
         style="fill:#000000;fill-opacity:1"
         d="M 0.25594759,3.8724317 0.45438508,3.8062858 0.58667674,3.9385775 0.45438508,4.0708692 0.25594759,4.137015"
         id="path6667" /><path
         style="fill:#000000;fill-opacity:1"
         d="M -0.07478156,3.9385775 0.0575101,3.8062858 0.25594759,3.8724317 V 4.137015 L 0.0575101,4.0708692"
         id="path6666" /><path
         style="fill:#f888c8;fill-opacity:1"
         d="M -0.33936488,3.9385775 -0.20707322,3.8062858 -0.07478156,3.9385775 0.0575101,4.0708692 -0.07478156,4.2031608 -0.27321905,4.137015"
         id="path6665" /><path
         style="fill:#f888c8;fill-opacity:1"
         d="m -0.53780237,3.8724317 0.19843749,0.066146 0.0661458,0.1984375 -0.19843749,-0.066146"
         id="path6664" /><path
         style="fill:#f888c8;fill-opacity:1"
         d="m -0.80238569,3.8724317 h 0.26458332 l 0.0661458,0.1984375 -0.13229166,0.1322916 -0.13229166,-0.1322916"
         id="path6663" /><path
         style="fill:#000000;fill-opacity:1"
         d="m -1.066969,3.8724317 h 0.26458331 L -0.73623986,4.0708692 -0.86853152,4.2031608 -1.066969,4.137015"
         id="path6662" /><path
         style="fill:#000000;fill-opacity:1"
         d="M -1.3315523,3.8724317 H -1.066969 V 4.137015 h -0.2645833"
         id="path6661" /><path
         style="fill:#000000;fill-opacity:0"
         d="m -1.5961356,3.8724317 h 0.2645833 V 4.137015 h -0.2645833"
         id="path6660" /><path
         style="fill:#000000;fill-opacity:0"
         d="m -1.860719,3.8724317 h 0.2645834 V 4.137015 H -1.860719"
         id="path6659" /><path
         style="fill:#000000;fill-opacity:0"
         d="M 2.1080308,3.6078483 H 2.3726141 V 3.8724317 H 2.1080308"
         id="path6658" /><path
         style="fill:#000000;fill-opacity:0"
         d="M 1.8434475,3.6078483 H 2.1080308 V 3.8724317 H 1.8434475"
         id="path6657" /><path
         style="fill:#000000;fill-opacity:1"
         d="M 1.5788642,3.6078483 H 1.8434475 V 3.8724317 H 1.5788642"
         id="path6656" /><path
         style="fill:#000000;fill-opacity:1"
         d="M 1.248135,3.6739942 1.3804267,3.5417025 1.5788642,3.6078483 V 3.8724317 H 1.3142809"
         id="path6655" /><path
         style="fill:#f888c8;fill-opacity:1"
         d="M 1.0496975,3.6078483 1.248135,3.6739943 1.314281,3.8724318 H 1.0496975"
         id="path6654" /><path
         style="fill:#f888c8;fill-opacity:1"
         d="M 0.85126006,3.6739942 1.0496975,3.6078483 V 3.8724317 L 0.85126006,3.9385775 0.7189684,3.8062858"
         id="path6653" /><path
         style="fill:#000000;fill-opacity:1"
         d="M 0.52053091,3.6078483 0.7189684,3.5417025 0.85126006,3.6739942 0.7189684,3.8062858 0.58667674,3.9385775 0.45438508,3.8062858"
         id="path6652" /><path
         style="fill:#000000;fill-opacity:1"
         d="M 0.25594759,3.6078483 H 0.52053091 L 0.45438508,3.8062858 0.25594759,3.8724317"
         id="path6651" /><path
         style="fill:#000000;fill-opacity:1"
         d="M -0.00863573,3.6078483 H 0.25594759 V 3.8724317 L 0.0575101,3.8062858"
         id="path6650" /><path
         style="fill:#000000;fill-opacity:1"
         d="m -0.27321905,3.6078483 h 0.26458332 L 0.0575101,3.8062858 -0.07478156,3.9385775 -0.20707322,3.8062858"
         id="path6649" /><path
         style="fill:#f888c8;fill-opacity:1"
         d="m -0.53780237,3.6078483 h 0.26458332 l 0.0661458,0.1984375 -0.13229166,0.1322917 -0.19843749,-0.066146"
         id="path6648" /><path
         style="fill:#f888c8;fill-opacity:1"
         d="m -0.80238569,3.6078483 h 0.26458332 v 0.2645834 h -0.26458332"
         id="path6647" /><path
         style="fill:#000000;fill-opacity:1"
         d="m -1.066969,3.6078483 h 0.26458331 V 3.8724317 H -1.066969"
         id="path6646" /><path
         style="fill:#000000;fill-opacity:1"
         d="M -1.3315523,3.6078483 H -1.066969 V 3.8724317 H -1.3315523"
         id="path6645" /><path
         style="fill:#000000;fill-opacity:0"
         d="m -1.5961356,3.6078483 h 0.2645833 v 0.2645834 h -0.2645833"
         id="path6644" /><path
         style="fill:#000000;fill-opacity:0"
         d="m -1.860719,3.6078483 h 0.2645834 V 3.8724317 H -1.860719"
         id="path6643" /><path
         style="fill:#000000;fill-opacity:0"
         d="M 2.1080308,3.343265 H 2.3726141 V 3.6078483 H 2.1080308"
         id="path6642" /><path
         style="fill:#000000;fill-opacity:0"
         d="M 1.8434475,3.343265 H 2.1080308 V 3.6078483 H 1.8434475"
         id="path6641" /><path
         style="fill:#000000;fill-opacity:1"
         d="M 1.5788642,3.343265 H 1.8434475 V 3.6078483 H 1.5788642"
         id="path6640" /><path
         style="fill:#000000;fill-opacity:1"
         d="M 1.3142809,3.343265 H 1.5788642 V 3.6078483 L 1.3804267,3.5417025"
         id="path6639" /><path
         style="fill:#000000;fill-opacity:1"
         d="M 1.0496975,3.343265 H 1.3142809 L 1.3804267,3.5417025 1.248135,3.6739942 1.0496975,3.6078483"
         id="path6638" /><path
         style="fill:#000000;fill-opacity:1"
         d="M 0.78511423,3.343265 H 1.0496975 V 3.6078483 L 0.85126006,3.6739942 0.7189684,3.5417025"
         id="path6637" /><path
         style="fill:#000000;fill-opacity:1"
         d="M 0.52053091,3.343265 H 0.78511423 L 0.7189684,3.5417025 0.52053091,3.6078483"
         id="path6636" /><path
         style="fill:#000000;fill-opacity:1"
         d="M 0.25594759,3.343265 H 0.52053091 V 3.6078483 H 0.25594759"
         id="path6635" /><path
         style="fill:#000000;fill-opacity:1"
         d="M -0.00863573,3.343265 H 0.25594759 V 3.6078483 H -0.00863573"
         id="path6634" /><path
         style="fill:#000000;fill-opacity:1"
         d="m -0.27321905,3.343265 h 0.26458332 v 0.2645833 h -0.26458332"
         id="path6633" /><path
         style="fill:#f888c8;fill-opacity:1"
         d="m -0.53780237,3.343265 h 0.26458332 v 0.2645833 h -0.26458332"
         id="path6632" /><path
         style="fill:#f888c8;fill-opacity:1"
         d="m -0.80238569,3.343265 h 0.26458332 v 0.2645833 h -0.26458332"
         id="path6631" /><path
         style="fill:#000000;fill-opacity:1"
         d="m -1.066969,3.343265 h 0.26458331 V 3.6078483 H -1.066969"
         id="path6630" /><path
         style="fill:#000000;fill-opacity:1"
         d="M -1.3315523,3.343265 H -1.066969 V 3.6078483 H -1.3315523"
         id="path6629" /><path
         style="fill:#000000;fill-opacity:0"
         d="m -1.5961356,3.343265 h 0.2645833 v 0.2645833 h -0.2645833"
         id="path6628" /><path
         style="fill:#000000;fill-opacity:0"
         d="m -1.860719,3.343265 h 0.2645834 V 3.6078483 H -1.860719"
         id="path6627" /><path
         style="fill:#000000;fill-opacity:0"
         d="M 2.1080308,3.0786817 H 2.3726141 V 3.343265 H 2.1080308"
         id="path6626" /><path
         style="fill:#000000;fill-opacity:0"
         d="M 1.8434475,3.0786817 H 2.1080308 V 3.343265 H 1.8434475"
         id="path6625" /><path
         style="fill:#000000;fill-opacity:1"
         d="M 1.5788642,3.0786817 H 1.8434475 V 3.343265 H 1.5788642"
         id="path6624" /><path
         style="fill:#000000;fill-opacity:1"
         d="M 1.3142809,3.0786817 H 1.5788642 V 3.343265 H 1.3142809"
         id="path6623" /><path
         style="fill:#000000;fill-opacity:1"
         d="M 1.0496975,3.0786817 H 1.3142809 V 3.343265 H 1.0496975"
         id="path6622" /><path
         style="fill:#000000;fill-opacity:1"
         d="M 0.78511423,3.0786817 H 1.0496975 V 3.343265 H 0.78511423"
         id="path6621" /><path
         style="fill:#000000;fill-opacity:1"
         d="M 0.52053091,3.0786817 H 0.78511423 V 3.343265 H 0.52053091"
         id="path6620" /><path
         style="fill:#000000;fill-opacity:1"
         d="M 0.25594759,3.0786817 H 0.52053091 V 3.343265 H 0.25594759"
         id="path6619" /><path
         style="fill:#000000;fill-opacity:1"
         d="M -0.00863573,3.0786817 H 0.25594759 V 3.343265 h -0.26458332"
         id="path6618" /><path
         style="fill:#000000;fill-opacity:1"
         d="m -0.27321905,3.0786817 h 0.26458332 V 3.343265 h -0.26458332"
         id="path6617" /><path
         style="fill:#f888c8;fill-opacity:1"
         d="m -0.53780237,3.0786817 h 0.26458332 V 3.343265 h -0.26458332"
         id="path6616" /><path
         style="fill:#f888c8;fill-opacity:1"
         d="m -0.80238569,3.0786817 h 0.26458332 V 3.343265 h -0.26458332"
         id="path6615" /><path
         style="fill:#000000;fill-opacity:1"
         d="m -1.066969,3.0786817 h 0.26458331 V 3.343265 H -1.066969"
         id="path6614" /><path
         style="fill:#000000;fill-opacity:1"
         d="M -1.3315523,3.0786817 H -1.066969 V 3.343265 h -0.2645833"
         id="path6613" /><path
         style="fill:#000000;fill-opacity:0"
         d="m -1.5961356,3.0786817 h 0.2645833 V 3.343265 h -0.2645833"
         id="path6612" /><path
         style="fill:#000000;fill-opacity:0"
         d="m -1.860719,3.0786817 h 0.2645834 V 3.343265 H -1.860719"
         id="path6611" /><path
         style="fill:#000000;fill-opacity:0"
         d="M 2.1080308,2.8140984 H 2.3726141 V 3.0786817 H 2.1080308"
         id="path6610" /><path
         style="fill:#000000;fill-opacity:0"
         d="M 1.8434475,2.8140984 H 2.1080308 V 3.0786817 H 1.8434475"
         id="path6609" /><path
         style="fill:#000000;fill-opacity:1"
         d="M 1.5788642,2.8140984 H 1.8434475 V 3.0786817 H 1.5788642"
         id="path6608" /><path
         style="fill:#000000;fill-opacity:1"
         d="M 1.3142809,2.8140984 H 1.5788642 V 3.0786817 H 1.3142809"
         id="path6607" /><path
         style="fill:#000000;fill-opacity:1"
         d="M 1.0496975,2.8140984 H 1.3142809 V 3.0786817 H 1.0496975"
         id="path6606" /><path
         style="fill:#000000;fill-opacity:1"
         d="M 0.78511423,2.8140984 H 1.0496975 V 3.0786817 H 0.78511423"
         id="path6605" /><path
         style="fill:#000000;fill-opacity:1"
         d="M 0.52053091,2.8140984 H 0.78511423 V 3.0786817 H 0.52053091"
         id="path6604" /><path
         style="fill:#000000;fill-opacity:1"
         d="M 0.25594759,2.8140984 H 0.52053091 V 3.0786817 H 0.25594759"
         id="path6603" /><path
         style="fill:#000000;fill-opacity:1"
         d="M -0.00863573,2.8140984 H 0.25594759 V 3.0786817 H -0.00863573"
         id="path6602" /><path
         style="fill:#000000;fill-opacity:1"
         d="m -0.27321905,2.8140984 h 0.26458332 v 0.2645833 h -0.26458332"
         id="path6601" /><path
         style="fill:#f888c8;fill-opacity:1"
         d="m -0.53780237,2.8140984 h 0.26458332 v 0.2645833 h -0.26458332"
         id="path6600" /><path
         style="fill:#f888c8;fill-opacity:1"
         d="m -0.80238569,2.8140984 h 0.26458332 v 0.2645833 h -0.26458332"
         id="path6599" /><path
         style="fill:#000000;fill-opacity:1"
         d="m -1.066969,2.8140984 h 0.26458331 V 3.0786817 H -1.066969"
         id="path6598" /><path
         style="fill:#000000;fill-opacity:1"
         d="M -1.3315523,2.8140984 H -1.066969 V 3.0786817 H -1.3315523"
         id="path6597" /><path
         style="fill:#000000;fill-opacity:0"
         d="m -1.5961356,2.8140984 h 0.2645833 v 0.2645833 h -0.2645833"
         id="path6596" /><path
         style="fill:#000000;fill-opacity:0"
         d="m -1.860719,2.8140984 h 0.2645834 V 3.0786817 H -1.860719"
         id="path6595" /><path
         style="fill:#000000;fill-opacity:0"
         d="M 2.1080308,2.5495151 H 2.3726141 V 2.8140984 H 2.1080308"
         id="path6594" /><path
         style="fill:#000000;fill-opacity:0"
         d="M 1.8434475,2.5495151 H 2.1080308 V 2.8140984 H 1.8434475"
         id="path6593" /><path
         style="fill:#000000;fill-opacity:1"
         d="M 1.5788642,2.5495151 H 1.8434475 V 2.8140984 H 1.5788642"
         id="path6592" /><path
         style="fill:#000000;fill-opacity:1"
         d="M 1.3804267,2.6156609 1.5788642,2.5495151 V 2.8140984 H 1.3142809"
         id="path6591" /><path
         style="fill:#000000;fill-opacity:1"
         d="M 1.0496975,2.5495151 1.248135,2.4833692 1.3804267,2.6156609 1.3142809,2.8140984 H 1.0496975"
         id="path6590" /><path
         style="fill:#000000;fill-opacity:1"
         d="M 0.7189684,2.6156609 0.85126006,2.4833692 1.0496975,2.5495151 V 2.8140984 H 0.78511423"
         id="path6589" /><path
         style="fill:#000000;fill-opacity:1"
         d="M 0.52053091,2.5495151 0.7189684,2.6156611 0.7851142,2.8140986 H 0.52053091"
         id="path6588" /><path
         style="fill:#000000;fill-opacity:1"
         d="M 0.25594759,2.5495151 H 0.52053091 V 2.8140984 H 0.25594759"
         id="path6587" /><path
         style="fill:#000000;fill-opacity:1"
         d="M -0.00863573,2.5495151 H 0.25594759 V 2.8140984 H -0.00863573"
         id="path6586" /><path
         style="fill:#000000;fill-opacity:1"
         d="m -0.27321905,2.5495151 h 0.26458332 v 0.2645833 h -0.26458332"
         id="path6585" /><path
         style="fill:#f888c8;fill-opacity:1"
         d="m -0.53780237,2.5495151 h 0.26458332 v 0.2645833 h -0.26458332"
         id="path6584" /><path
         style="fill:#f888c8;fill-opacity:1"
         d="m -0.80238569,2.5495151 h 0.26458332 v 0.2645833 h -0.26458332"
         id="path6583" /><path
         style="fill:#000000;fill-opacity:1"
         d="m -1.066969,2.5495151 h 0.26458331 V 2.8140984 H -1.066969"
         id="path6582" /><path
         style="fill:#000000;fill-opacity:1"
         d="M -1.3315523,2.5495151 H -1.066969 V 2.8140984 H -1.3315523"
         id="path6581" /><path
         style="fill:#000000;fill-opacity:0"
         d="m -1.5961356,2.5495151 h 0.2645833 v 0.2645833 h -0.2645833"
         id="path6580" /><path
         style="fill:#000000;fill-opacity:0"
         d="m -1.860719,2.5495151 h 0.2645834 V 2.8140984 H -1.860719"
         id="path6579" /><path
         style="fill:#000000;fill-opacity:0"
         d="M 2.1080308,2.2849317 H 2.3726141 V 2.5495151 H 2.1080308"
         id="path6578" /><path
         style="fill:#000000;fill-opacity:0"
         d="M 1.8434475,2.2849317 H 2.1080308 V 2.5495151 H 1.8434475"
         id="path6577" /><path
         style="fill:#000000;fill-opacity:1"
         d="M 1.5788642,2.2849317 H 1.8434475 V 2.5495151 H 1.5788642"
         id="path6576" /><path
         style="fill:#000000;fill-opacity:1"
         d="M 1.3142809,2.2849317 H 1.5788642 V 2.5495151 L 1.3804267,2.6156609 1.248135,2.4833692"
         id="path6575" /><path
         style="fill:#f888d0;fill-opacity:1"
         d="M 1.0496975,2.2849317 H 1.3142809 L 1.248135,2.4833692 1.0496975,2.5495151"
         id="path6574" /><path
         style="fill:#f888d0;fill-opacity:1"
         d="M 0.7189684,2.3510776 0.85126006,2.2187859 1.0496975,2.2849317 V 2.5495151 L 0.85126006,2.4833692"
         id="path6573" /><path
         style="fill:#000000;fill-opacity:1"
         d="M 0.45438508,2.3510776 0.58667674,2.2187859 0.7189684,2.3510776 0.85126006,2.4833692 0.7189684,2.6156609 0.52053091,2.5495151"
         id="path6572" /><path
         style="fill:#000000;fill-opacity:1"
         d="m 0.25594759,2.2849317 0.19843749,0.066146 0.0661458,0.1984375 H 0.25594759"
         id="path6571" /><path
         style="fill:#000000;fill-opacity:1"
         d="M 0.0575101,2.3510776 0.25594759,2.2849317 V 2.5495151 H -0.00863573"
         id="path6570" /><path
         style="fill:#000000;fill-opacity:1"
         d="M -0.20707322,2.3510776 -0.07478156,2.2187859 0.0575101,2.3510776 -0.00863573,2.5495151 h -0.26458332"
         id="path6569" /><path
         style="fill:#f888c8;fill-opacity:1"
         d="m -0.53780237,2.2849317 0.19843749,-0.066146 0.13229166,0.1322917 -0.0661458,0.1984375 h -0.26458332"
         id="path6568" /><path
         style="fill:#f888c8;fill-opacity:1"
         d="m -0.80238569,2.2849317 h 0.26458332 v 0.2645834 h -0.26458332"
         id="path6567" /><path
         style="fill:#000000;fill-opacity:1"
         d="m -1.066969,2.2849317 h 0.26458331 V 2.5495151 H -1.066969"
         id="path6566" /><path
         style="fill:#000000;fill-opacity:1"
         d="M -1.3315523,2.2849317 H -1.066969 V 2.5495151 H -1.3315523"
         id="path6565" /><path
         style="fill:#000000;fill-opacity:0"
         d="m -1.5961356,2.2849317 h 0.2645833 v 0.2645834 h -0.2645833"
         id="path6564" /><path
         style="fill:#000000;fill-opacity:0"
         d="m -1.860719,2.2849317 h 0.2645834 V 2.5495151 H -1.860719"
         id="path6563" /><path
         style="fill:#000000;fill-opacity:0"
         d="M 2.1080308,2.0203484 H 2.3726141 V 2.2849317 H 2.1080308"
         id="path6562" /><path
         style="fill:#000000;fill-opacity:0"
         d="M 1.8434475,2.0203484 H 2.1080308 V 2.2849317 H 1.8434475"
         id="path6561" /><path
         style="fill:#000000;fill-opacity:1"
         d="M 1.5788642,2.0203484 H 1.8434475 V 2.2849317 H 1.5788642"
         id="path6560" /><path
         style="fill:#000000;fill-opacity:1"
         d="M 1.248135,2.0864943 1.3804267,1.9542026 1.5788642,2.0203484 V 2.2849317 H 1.3142809"
         id="path6559" /><path
         style="fill:#f888d0;fill-opacity:1"
         d="M 0.98355172,2.0864943 1.1158434,1.9542026 1.248135,2.0864943 1.3142809,2.2849317 H 1.0496975"
         id="path6558" /><path
         style="fill:#f888d0;fill-opacity:1"
         d="M 0.78511423,2.0203484 0.98355172,2.0864943 1.0496975,2.2849317 0.85126006,2.2187859"
         id="path6557" /><path
         style="fill:#f888d0;fill-opacity:1"
         d="M 0.45438508,2.0864943 0.58667674,1.9542026 0.78511423,2.0203484 0.85126006,2.2187859 0.7189684,2.3510776 0.58667674,2.2187859"
         id="path6556" /><path
         style="fill:#000000;fill-opacity:1"
         d="M 0.25594759,2.0203484 0.45438508,2.0864943 0.58667674,2.2187859 0.45438508,2.3510776 0.25594759,2.2849317"
         id="path6555" /><path
         style="fill:#000000;fill-opacity:1"
         d="M 0.0575101,2.0864943 0.25594759,2.0203484 V 2.2849317 L 0.0575101,2.3510776 -0.07478156,2.2187859"
         id="path6554" /><path
         style="fill:#f888c8;fill-opacity:1"
         d="M -0.27321905,2.0203484 -0.07478156,1.9542026 0.0575101,2.0864943 -0.07478156,2.2187859 -0.20707322,2.3510776 -0.33936488,2.2187859"
         id="path6553" /><path
         style="fill:#f888c8;fill-opacity:1"
         d="m -0.47165654,2.0864943 0.19843749,-0.066146 -0.0661458,0.1984375 -0.19843749,0.066146"
         id="path6552" /><path
         style="fill:#f888c8;fill-opacity:1"
         d="m -0.73623986,2.0864943 0.13229166,-0.1322917 0.13229166,0.1322917 -0.0661458,0.1984374 h -0.26458332"
         id="path6551" /><path
         style="fill:#000000;fill-opacity:1"
         d="m -1.066969,2.0203484 0.19843748,-0.066146 0.13229166,0.1322917 -0.0661458,0.1984374 H -1.066969"
         id="path6550" /><path
         style="fill:#000000;fill-opacity:1"
         d="M -1.3315523,2.0203484 H -1.066969 V 2.2849317 H -1.3315523"
         id="path6549" /><path
         style="fill:#000000;fill-opacity:0"
         d="m -1.5961356,2.0203484 h 0.2645833 v 0.2645833 h -0.2645833"
         id="path6548" /><path
         style="fill:#000000;fill-opacity:0"
         d="m -1.860719,2.0203484 h 0.2645834 V 2.2849317 H -1.860719"
         id="path6547" /><path
         style="fill:#000000;fill-opacity:0"
         d="M 2.1080308,1.7557651 H 2.3726141 V 2.0203484 H 2.1080308"
         id="path6546" /><path
         style="fill:#000000;fill-opacity:0"
         d="M 1.8434475,1.7557651 H 2.1080308 V 2.0203484 H 1.8434475"
         id="path6545" /><path
         style="fill:#000000;fill-opacity:1"
         d="M 1.5788642,1.7557651 H 1.8434475 V 2.0203484 H 1.5788642"
         id="path6544" /><path
         style="fill:#000000;fill-opacity:1"
         d="M 1.3142809,1.7557651 H 1.5788642 V 2.0203484 L 1.3804267,1.9542026"
         id="path6543" /><path
         style="fill:#000000;fill-opacity:1"
         d="M 0.98355172,1.8219109 1.1158434,1.6896193 1.3142809,1.7557651 1.3804267,1.9542026 1.248135,2.0864943 1.1158434,1.9542026"
         id="path6542" /><path
         style="fill:#f888c8;fill-opacity:1"
         d="M 0.7189684,1.8219109 0.85126006,1.6896193 0.98355172,1.8219109 1.1158434,1.9542026 0.98355172,2.0864943 0.78511423,2.0203484"
         id="path6541" /><path
         style="fill:#f888c8;fill-opacity:1"
         d="M 0.52053091,1.7557651 0.7189684,1.8219109 0.78511423,2.0203484 0.58667674,1.9542026"
         id="path6540" /><path
         style="fill:#f888c8;fill-opacity:1"
         d="M 0.25594759,1.7557651 H 0.52053091 L 0.58667674,1.9542026 0.45438508,2.0864943 0.25594759,2.0203484"
         id="path6539" /><path
         style="fill:#f888c8;fill-opacity:1"
         d="M -0.00863573,1.7557651 H 0.25594759 V 2.0203484 L 0.0575101,2.0864943 -0.07478156,1.9542026"
         id="path6538" /><path
         style="fill:#f888c8;fill-opacity:1"
         d="m -0.20707322,1.8219109 0.19843749,-0.066146 -0.06614583,0.1984375 -0.19843749,0.066146"
         id="path6537" /><path
         style="fill:#f888c8;fill-opacity:1"
         d="m -0.47165654,1.8219109 0.13229166,-0.1322916 0.13229166,0.1322916 -0.0661458,0.1984375 -0.19843749,0.066146 -0.13229166,-0.1322917"
         id="path6536" /><path
         style="fill:#000000;fill-opacity:1"
         d="M -0.80238569,1.7557651 -0.6039482,1.6896193 -0.47165654,1.8219109 -0.6039482,1.9542026 -0.73623986,2.0864943 -0.86853152,1.9542026"
         id="path6535" /><path
         style="fill:#000000;fill-opacity:1"
         d="m -1.066969,1.7557651 h 0.26458331 l -0.0661458,0.1984375 -0.19843751,0.066146"
         id="path6534" /><path
         style="fill:#000000;fill-opacity:1"
         d="M -1.3315523,1.7557651 H -1.066969 V 2.0203484 H -1.3315523"
         id="path6533" /><path
         style="fill:#000000;fill-opacity:0"
         d="m -1.5961356,1.7557651 h 0.2645833 v 0.2645833 h -0.2645833"
         id="path6532" /><path
         style="fill:#000000;fill-opacity:0"
         d="m -1.860719,1.7557651 h 0.2645834 V 2.0203484 H -1.860719"
         id="path6531" /><path
         style="fill:#000000;fill-opacity:0"
         d="M 2.1080308,1.4911818 H 2.3726141 V 1.7557651 H 2.1080308"
         id="path6530" /><path
         style="fill:#000000;fill-opacity:0"
         d="M 1.8434475,1.4911818 H 2.1080308 V 1.7557651 H 1.8434475"
         id="path6529" /><path
         style="fill:#000000;fill-opacity:0"
         d="M 1.5788642,1.4911818 H 1.8434475 V 1.7557651 H 1.5788642"
         id="path6528" /><path
         style="fill:#000000;fill-opacity:1"
         d="M 1.3142809,1.4911818 H 1.5788642 V 1.7557651 H 1.3142809"
         id="path6527" /><path
         style="fill:#000000;fill-opacity:1"
         d="M 1.0496975,1.4911818 H 1.3142809 V 1.7557651 L 1.1158434,1.6896193"
         id="path6526" /><path
         style="fill:#000000;fill-opacity:1"
         d="M 0.7189684,1.5573276 0.85126006,1.425036 1.0496975,1.4911818 1.1158434,1.6896193 0.98355172,1.8219109 0.85126006,1.6896193"
         id="path6525" /><path
         style="fill:#f888c8;fill-opacity:1"
         d="M 0.52053091,1.4911818 0.7189684,1.5573276 0.85126006,1.6896193 0.7189684,1.8219109 0.52053091,1.7557651"
         id="path6524" /><path
         style="fill:#f888c8;fill-opacity:1"
         d="M 0.25594759,1.4911818 H 0.52053091 V 1.7557651 H 0.25594759"
         id="path6523" /><path
         style="fill:#f888c8;fill-opacity:1"
         d="M -0.00863573,1.4911818 H 0.25594759 V 1.7557651 H -0.00863573"
         id="path6522" /><path
         style="fill:#f888c8;fill-opacity:1"
         d="m -0.20707322,1.5573276 0.19843749,-0.066146 v 0.2645833 l -0.19843749,0.066146 -0.13229166,-0.1322916"
         id="path6521" /><path
         style="fill:#000000;fill-opacity:1"
         d="M -0.53780237,1.4911818 -0.33936488,1.425036 -0.20707322,1.5573276 -0.33936488,1.6896193 -0.47165654,1.8219109 -0.6039482,1.6896193"
         id="path6520" /><path
         style="fill:#000000;fill-opacity:1"
         d="m -0.80238569,1.4911818 h 0.26458332 l -0.0661458,0.1984375 -0.19843749,0.066146"
         id="path6519" /><path
         style="fill:#000000;fill-opacity:1"
         d="m -1.066969,1.4911818 h 0.26458331 V 1.7557651 H -1.066969"
         id="path6518" /><path
         style="fill:#000000;fill-opacity:0"
         d="M -1.3315523,1.4911818 H -1.066969 V 1.7557651 H -1.3315523"
         id="path6517" /><path
         style="fill:#000000;fill-opacity:0"
         d="m -1.5961356,1.4911818 h 0.2645833 v 0.2645833 h -0.2645833"
         id="path6516" /><path
         style="fill:#000000;fill-opacity:0"
         d="m -1.860719,1.4911818 h 0.2645834 V 1.7557651 H -1.860719"
         id="path6515" /><path
         style="fill:#000000;fill-opacity:0"
         d="M 2.1080308,1.2265985 H 2.3726141 V 1.4911818 H 2.1080308"
         id="path6514" /><path
         style="fill:#000000;fill-opacity:0"
         d="M 1.8434475,1.2265985 H 2.1080308 V 1.4911818 H 1.8434475"
         id="path6513" /><path
         style="fill:#000000;fill-opacity:0"
         d="M 1.5788642,1.2265985 H 1.8434475 V 1.4911818 H 1.5788642"
         id="path6512" /><path
         style="fill:#000000;fill-opacity:0"
         d="M 1.3142809,1.2265985 H 1.5788642 V 1.4911818 H 1.3142809"
         id="path6511" /><path
         style="fill:#000000;fill-opacity:1"
         d="M 1.0496975,1.2265985 H 1.3142809 V 1.4911818 H 1.0496975"
         id="path6510" /><path
         style="fill:#000000;fill-opacity:1"
         d="M 0.78511423,1.2265985 H 1.0496975 V 1.4911818 L 0.85126006,1.425036"
         id="path6509" /><path
         style="fill:#000000;fill-opacity:1"
         d="M 0.52053091,1.2265985 H 0.78511423 L 0.85126006,1.425036 0.7189684,1.5573276 0.52053091,1.4911818"
         id="path6508" /><path
         style="fill:#000000;fill-opacity:1"
         d="M 0.25594759,1.2265985 H 0.52053091 V 1.4911818 H 0.25594759"
         id="path6507" /><path
         style="fill:#000000;fill-opacity:1"
         d="M -0.00863573,1.2265985 H 0.25594759 V 1.4911818 H -0.00863573"
         id="path6506" /><path
         style="fill:#000000;fill-opacity:1"
         d="m -0.27321905,1.2265985 h 0.26458332 V 1.4911818 L -0.20707322,1.5573276 -0.33936488,1.425036"
         id="path6505" /><path
         style="fill:#000000;fill-opacity:1"
         d="m -0.53780237,1.2265985 h 0.26458332 l -0.0661458,0.1984375 -0.19843749,0.066146"
         id="path6504" /><path
         style="fill:#000000;fill-opacity:1"
         d="m -0.80238569,1.2265985 h 0.26458332 v 0.2645833 h -0.26458332"
         id="path6503" /><path
         style="fill:#000000;fill-opacity:0"
         d="m -1.066969,1.2265985 h 0.26458331 V 1.4911818 H -1.066969"
         id="path6502" /><path
         style="fill:#000000;fill-opacity:0"
         d="M -1.3315523,1.2265985 H -1.066969 V 1.4911818 H -1.3315523"
         id="path6501" /><path
         style="fill:#000000;fill-opacity:0"
         d="m -1.5961356,1.2265985 h 0.2645833 v 0.2645833 h -0.2645833"
         id="path6500" /><path
         style="fill:#000000;fill-opacity:0"
         d="m -1.860719,1.2265985 h 0.2645834 V 1.4911818 H -1.860719"
         id="path6499" /><path
         style="fill:#000000;fill-opacity:0"
         d="M 2.1080308,0.96201515 H 2.3726141 V 1.2265985 H 2.1080308"
         id="path6498" /><path
         style="fill:#000000;fill-opacity:0"
         d="M 1.8434475,0.96201515 H 2.1080308 V 1.2265985 H 1.8434475"
         id="path6497" /><path
         style="fill:#000000;fill-opacity:0"
         d="M 1.5788642,0.96201515 H 1.8434475 V 1.2265985 H 1.5788642"
         id="path6496" /><path
         style="fill:#000000;fill-opacity:0"
         d="M 1.3142809,0.96201515 H 1.5788642 V 1.2265985 H 1.3142809"
         id="path6495" /><path
         style="fill:#000000;fill-opacity:0"
         d="M 1.0496975,0.96201515 H 1.3142809 V 1.2265985 H 1.0496975"
         id="path6494" /><path
         style="fill:#000000;fill-opacity:1"
         d="M 0.78511423,0.96201515 H 1.0496975 V 1.2265985 H 0.78511423"
         id="path6493" /><path
         style="fill:#000000;fill-opacity:1"
         d="M 0.52053091,0.96201515 H 0.78511423 V 1.2265985 H 0.52053091"
         id="path6492" /><path
         style="fill:#000000;fill-opacity:1"
         d="M 0.25594759,0.96201515 H 0.52053091 V 1.2265985 H 0.25594759"
         id="path6491" /><path
         style="fill:#000000;fill-opacity:1"
         d="M -0.00863573,0.96201515 H 0.25594759 V 1.2265985 h -0.26458332"
         id="path6490" /><path
         style="fill:#000000;fill-opacity:1"
         d="m -0.27321905,0.96201515 h 0.26458332 V 1.2265985 h -0.26458332"
         id="path6489" /><path
         style="fill:#000000;fill-opacity:1"
         d="m -0.53780237,0.96201515 h 0.26458332 V 1.2265985 h -0.26458332"
         id="path6488" /><path
         style="fill:#000000;fill-opacity:0"
         d="m -0.80238569,0.96201515 h 0.26458332 V 1.2265985 h -0.26458332"
         id="path6487" /><path
         style="fill:#000000;fill-opacity:0"
         d="m -1.066969,0.96201515 h 0.26458331 V 1.2265985 H -1.066969"
         id="path6486" /><path
         style="fill:#000000;fill-opacity:0"
         d="M -1.3315523,0.96201515 H -1.066969 V 1.2265985 h -0.2645833"
         id="path6485" /><path
         style="fill:#000000;fill-opacity:0"
         d="m -1.5961356,0.96201515 h 0.2645833 V 1.2265985 h -0.2645833"
         id="path6484" /><path
         style="fill:#000000;fill-opacity:0"
         d="m -1.860719,0.96201515 h 0.2645834 V 1.2265985 H -1.860719"
         id="path6483" /></g></g></svg>
