<?xml version="1.0" encoding="UTF-8" standalone="no"?>
<!-- Created with Inkscape (http://www.inkscape.org/) -->

<svg
   width="8mm"
   height="8mm"
   viewBox="0 0 8 8"
   version="1.1"
   id="svg1"
   xml:space="preserve"
   xmlns="http://www.w3.org/2000/svg"
   xmlns:svg="http://www.w3.org/2000/svg"><defs
     id="defs1"><clipPath
       clipPathUnits="userSpaceOnUse"
       id="clipPath1"><path
         style="fill:#000000;stroke-width:0.264583"
         d="m 0.93652975,2.0561631 0.19511035,-0.003 -0.003,-0.417236 0.2011138,-0.003 -0.003,-0.2041155 0.2131205,0.006 -0.003,-0.2131205 h 0.2011138 l -0.006,-0.1981121 2.0441561,-0.006 0.003,0.2071172 0.1981121,-0.012007 0.006,0.4082309 0.6003396,0.00901 0.009,0.2191239 0.1921084,-0.00901 0.00901,0.2101189 0.3992258,-0.003 0.006,-0.1921087 0.1951107,-0.012007 V 1.629922 l 1.2306961,0.003 0.003,0.2161222 0.1951104,-0.006 -0.003,0.2131206 0.2071172,-0.003 0.006,1.4558234 -0.2034209,-1.551e-4 -0.00206,2.0722248 H 6.4202808 l 0.00206,0.8288899 -0.4123777,-0.00206 v 0.422706 H 1.7414957 L 1.7404622,6.6910641 H 1.5461588 l -0.00413,-0.2821532 -0.2077392,0.00206 -0.00207,-0.1467612 -0.2015381,-0.00413 -0.0031,-0.4061767 -0.19947099,0.00206 -0.001035,-3.8054523 z"
         id="path2" /></clipPath></defs><g
     id="layer1"><g
       id="g2"
       transform="matrix(1.8867188,0,0,1.875,-7.2364444,-4.9609375)"><path
         style="fill:#000000;fill-opacity:0"
         d="M 7.8217445,6.614583 H 8.0863278 V 6.8791664 H 7.8217445"
         id="path258" /><path
         style="fill:#000000;fill-opacity:0"
         d="M 7.5571612,6.614583 H 7.8217445 V 6.8791664 H 7.5571612"
         id="path257" /><path
         style="fill:#000000;fill-opacity:0"
         d="M 7.2925778,6.614583 H 7.5571612 V 6.8791664 H 7.2925778"
         id="path256" /><path
         style="fill:#000000;fill-opacity:0"
         d="M 7.0279945,6.614583 H 7.2925778 V 6.8791664 H 7.0279945"
         id="path255" /><path
         style="fill:#000000;fill-opacity:0"
         d="M 6.7634112,6.614583 H 7.0279945 V 6.8791664 H 6.7634112"
         id="path254" /><path
         style="fill:#000000;fill-opacity:0"
         d="M 6.4988279,6.614583 H 6.7634112 V 6.8791664 H 6.4988279"
         id="path253" /><path
         style="fill:#000000;fill-opacity:0"
         d="M 6.2342446,6.614583 H 6.4988279 V 6.8791664 H 6.2342446"
         id="path252" /><path
         style="fill:#000000;fill-opacity:0"
         d="M 5.9696612,6.614583 H 6.2342446 V 6.8791664 H 5.9696612"
         id="path251" /><path
         style="fill:#000000;fill-opacity:0"
         d="M 5.7050779,6.614583 H 5.9696612 V 6.8791664 H 5.7050779"
         id="path250" /><path
         style="fill:#000000;fill-opacity:0"
         d="M 5.4404946,6.614583 H 5.7050779 V 6.8791664 H 5.4404946"
         id="path249" /><path
         style="fill:#000000;fill-opacity:0"
         d="M 5.1759113,6.614583 H 5.4404946 V 6.8791664 H 5.1759113"
         id="path248" /><path
         style="fill:#000000;fill-opacity:0"
         d="M 4.911328,6.614583 H 5.1759113 V 6.8791664 H 4.911328"
         id="path247" /><path
         style="fill:#000000;fill-opacity:0"
         d="M 4.6467446,6.614583 H 4.911328 V 6.8791664 H 4.6467446"
         id="path246" /><path
         style="fill:#000000;fill-opacity:0"
         d="M 4.3821613,6.614583 H 4.6467446 V 6.8791664 H 4.3821613"
         id="path245" /><path
         style="fill:#000000;fill-opacity:0"
         d="M 4.117578,6.614583 H 4.3821613 V 6.8791664 H 4.117578"
         id="path244" /><path
         style="fill:#000000;fill-opacity:0"
         d="M 3.8529947,6.614583 H 4.117578 V 6.8791664 H 3.8529947"
         id="path243" /><path
         style="fill:#000000;fill-opacity:0"
         d="M 7.8217445,6.3499997 H 8.0863278 V 6.614583 H 7.8217445"
         id="path242" /><path
         style="fill:#000000;fill-opacity:0"
         d="M 7.5571612,6.3499997 H 7.8217445 V 6.614583 H 7.5571612"
         id="path241" /><path
         style="fill:#000000;fill-opacity:0"
         d="M 7.2925778,6.3499997 H 7.5571612 V 6.614583 H 7.2925778"
         id="path240" /><path
         style="fill:#000000;fill-opacity:0"
         d="M 7.0279945,6.3499997 H 7.2925778 V 6.614583 H 7.0279945"
         id="path239" /><path
         style="fill:#000000;fill-opacity:0"
         d="M 6.7634112,6.3499997 H 7.0279945 V 6.614583 H 6.7634112"
         id="path238" /><path
         style="fill:#000000;fill-opacity:0"
         d="M 6.4988279,6.3499997 H 6.7634112 V 6.614583 H 6.4988279"
         id="path237" /><path
         style="fill:#000000;fill-opacity:0"
         d="M 6.2342446,6.3499997 H 6.4988279 V 6.614583 H 6.2342446"
         id="path236" /><path
         style="fill:#000000;fill-opacity:0"
         d="M 5.9696612,6.3499997 H 6.2342446 V 6.614583 H 5.9696612"
         id="path235" /><path
         style="fill:#000000;fill-opacity:0"
         d="M 5.7050779,6.3499997 H 5.9696612 V 6.614583 H 5.7050779"
         id="path234" /><path
         style="fill:#000400;fill-opacity:1"
         d="M 5.4404946,6.3499997 H 5.7050779 V 6.614583 H 5.4404946"
         id="path233" /><path
         style="fill:#000400;fill-opacity:1"
         d="M 5.1759113,6.3499997 H 5.4404946 V 6.614583 H 5.1759113"
         id="path232" /><path
         style="fill:#000400;fill-opacity:1"
         d="M 4.911328,6.3499997 H 5.1759113 V 6.614583 H 4.911328"
         id="path231" /><path
         style="fill:#000000;fill-opacity:1"
         d="M 4.6467446,6.3499997 H 4.911328 V 6.614583 H 4.6467446"
         id="path230" /><path
         style="fill:#000000;fill-opacity:1"
         d="M 4.3821613,6.3499997 H 4.6467446 V 6.614583 H 4.3821613"
         id="path229" /><path
         style="fill:#000000;fill-opacity:1"
         d="M 4.117578,6.3499997 H 4.3821613 V 6.614583 H 4.117578"
         id="path228" /><path
         style="fill:#000000;fill-opacity:0"
         d="M 3.8529947,6.3499997 H 4.117578 V 6.614583 H 3.8529947"
         id="path227" /><path
         style="fill:#000000;fill-opacity:0"
         d="M 7.8217445,6.0854164 H 8.0863278 V 6.3499997 H 7.8217445"
         id="path226" /><path
         style="fill:#000000;fill-opacity:0"
         d="M 7.5571612,6.0854164 H 7.8217445 V 6.3499997 H 7.5571612"
         id="path225" /><path
         style="fill:#000000;fill-opacity:0"
         d="M 7.2925778,6.0854164 H 7.5571612 V 6.3499997 H 7.2925778"
         id="path224" /><path
         style="fill:#000000;fill-opacity:0"
         d="M 7.0279945,6.0854164 H 7.2925778 V 6.3499997 H 7.0279945"
         id="path223" /><path
         style="fill:#000000;fill-opacity:0"
         d="M 6.7634112,6.0854164 H 7.0279945 V 6.3499997 H 6.7634112"
         id="path222" /><path
         style="fill:#000000;fill-opacity:0"
         d="M 6.4988279,6.0854164 H 6.7634112 V 6.3499997 H 6.4988279"
         id="path221" /><path
         style="fill:#000000;fill-opacity:0"
         d="M 6.2342446,6.0854164 H 6.4988279 V 6.3499997 H 6.2342446"
         id="path220" /><path
         style="fill:#000000;fill-opacity:0"
         d="M 5.9696612,6.0854164 H 6.2342446 V 6.3499997 H 5.9696612"
         id="path219" /><path
         style="fill:#000400;fill-opacity:1"
         d="M 5.7050779,6.0854164 H 5.9696612 V 6.3499997 H 5.7050779"
         id="path218" /><path
         style="fill:#000400;fill-opacity:1"
         d="M 5.5066404,6.1515622 5.7050779,6.0854164 V 6.3499997 H 5.4404946"
         id="path217" /><path
         style="fill:#000400;fill-opacity:1"
         d="M 5.1759113,6.0854164 5.3743488,6.0192706 5.5066404,6.1515622 5.4404946,6.3499997 H 5.1759113"
         id="path216" /><path
         style="fill:#000400;fill-opacity:1"
         d="M 4.911328,6.0854164 H 5.1759113 V 6.3499997 H 4.911328"
         id="path215" /><path
         style="fill:#000000;fill-opacity:1"
         d="M 4.5805988,6.1515622 4.7128905,6.0192706 4.911328,6.0854164 V 6.3499997 H 4.6467446"
         id="path214" /><path
         style="fill:#000000;fill-opacity:1"
         d="m 4.3821613,6.0854164 0.1984375,0.066146 0.066146,0.1984375 H 4.3821613"
         id="path213" /><path
         style="fill:#000000;fill-opacity:1"
         d="M 4.117578,6.0854164 H 4.3821613 V 6.3499997 H 4.117578"
         id="path212" /><path
         style="fill:#000000;fill-opacity:0"
         d="M 3.8529947,6.0854164 H 4.117578 V 6.3499997 H 3.8529947"
         id="path211" /><path
         style="fill:#000000;fill-opacity:0"
         d="M 7.8217445,5.8208331 H 8.0863278 V 6.0854164 H 7.8217445"
         id="path210" /><path
         style="fill:#000000;fill-opacity:0"
         d="M 7.5571612,5.8208331 H 7.8217445 V 6.0854164 H 7.5571612"
         id="path209" /><path
         style="fill:#000000;fill-opacity:0"
         d="M 7.2925778,5.8208331 H 7.5571612 V 6.0854164 H 7.2925778"
         id="path208" /><path
         style="fill:#000000;fill-opacity:0"
         d="M 7.0279945,5.8208331 H 7.2925778 V 6.0854164 H 7.0279945"
         id="path207" /><path
         style="fill:#000000;fill-opacity:0"
         d="M 6.7634112,5.8208331 H 7.0279945 V 6.0854164 H 6.7634112"
         id="path206" /><path
         style="fill:#000000;fill-opacity:0"
         d="M 6.4988279,5.8208331 H 6.7634112 V 6.0854164 H 6.4988279"
         id="path205" /><path
         style="fill:#000000;fill-opacity:1"
         d="M 6.2342446,5.8208331 H 6.4988279 V 6.0854164 H 6.2342446"
         id="path204" /><path
         style="fill:#000000;fill-opacity:1"
         d="M 5.9696612,5.8208331 H 6.2342446 V 6.0854164 H 5.9696612"
         id="path203" /><path
         style="fill:#000400;fill-opacity:1"
         d="M 5.7712237,5.8869789 5.9696612,5.8208331 V 6.0854164 H 5.7050779"
         id="path202" /><path
         style="fill:#000400;fill-opacity:1"
         d="M 5.4404946,5.8208331 5.6389321,5.7546873 5.7712237,5.8869789 5.7050779,6.0854164 5.5066404,6.1515622 5.3743488,6.0192706"
         id="path201" /><path
         style="fill:#787a70;fill-opacity:1"
         d="M 5.1759113,5.8208331 H 5.4404946 L 5.3743488,6.0192706 5.1759113,6.0854164"
         id="path200" /><path
         style="fill:#f0f0e0;fill-opacity:1"
         d="M 4.911328,5.8208331 H 5.1759113 V 6.0854164 H 4.911328"
         id="path199" /><path
         style="fill:#987c68;fill-opacity:1"
         d="M 4.6467446,5.8208331 H 4.911328 V 6.0854164 L 4.7128905,6.0192706"
         id="path198" /><path
         style="fill:#000000;fill-opacity:1"
         d="M 4.3821613,5.8208331 H 4.6467446 L 4.7128905,6.0192706 4.5805988,6.1515622 4.3821613,6.0854164"
         id="path197" /><path
         style="fill:#000000;fill-opacity:1"
         d="M 4.117578,5.8208331 H 4.3821613 V 6.0854164 H 4.117578"
         id="path196" /><path
         style="fill:#000000;fill-opacity:0"
         d="M 3.8529947,5.8208331 H 4.117578 V 6.0854164 H 3.8529947"
         id="path195" /><path
         style="fill:#000000;fill-opacity:0"
         d="M 7.8217445,5.5562498 H 8.0863278 V 5.8208331 H 7.8217445"
         id="path194" /><path
         style="fill:#000000;fill-opacity:1"
         d="M 7.5571612,5.5562498 H 7.8217445 V 5.8208331 H 7.5571612"
         id="path193" /><path
         style="fill:#000000;fill-opacity:1"
         d="M 7.2925778,5.5562498 H 7.5571612 V 5.8208331 H 7.2925778"
         id="path192" /><path
         style="fill:#000000;fill-opacity:1"
         d="M 7.0279945,5.5562498 H 7.2925778 V 5.8208331 H 7.0279945"
         id="path191" /><path
         style="fill:#000000;fill-opacity:1"
         d="M 6.7634112,5.5562498 H 7.0279945 V 5.8208331 H 6.7634112"
         id="path190" /><path
         style="fill:#000000;fill-opacity:1"
         d="M 6.4988279,5.5562498 H 6.7634112 V 5.8208331 H 6.4988279"
         id="path189" /><path
         style="fill:#000000;fill-opacity:1"
         d="M 6.3003904,5.6223956 6.4988279,5.5562498 V 5.8208331 H 6.2342446"
         id="path188" /><path
         style="fill:#000000;fill-opacity:1"
         d="M 5.9696612,5.5562498 6.1680987,5.4901039 6.3003904,5.6223956 6.2342446,5.8208331 H 5.9696612"
         id="path187" /><path
         style="fill:#000000;fill-opacity:1"
         d="M 5.7712237,5.6223956 5.9696612,5.5562498 V 5.8208331 L 5.7712237,5.8869789 5.6389321,5.7546873"
         id="path186" /><path
         style="fill:#e8c018;fill-opacity:1"
         d="M 5.4404946,5.5562498 5.6389321,5.4901039 5.7712237,5.6223956 5.6389321,5.7546873 5.4404946,5.8208331"
         id="path185" /><path
         style="fill:#e8c018;fill-opacity:1"
         d="M 5.1759113,5.5562498 H 5.4404946 V 5.8208331 H 5.1759113"
         id="path184" /><path
         style="fill:#e8c018;fill-opacity:1"
         d="M 4.911328,5.5562498 H 5.1759113 V 5.8208331 H 4.911328"
         id="path183" /><path
         style="fill:#746838;fill-opacity:1"
         d="M 4.6467446,5.5562498 H 4.911328 V 5.8208331 H 4.6467446"
         id="path182" /><path
         style="fill:#000000;fill-opacity:1"
         d="M 4.3821613,5.5562498 H 4.6467446 V 5.8208331 H 4.3821613"
         id="path181" /><path
         style="fill:#000000;fill-opacity:1"
         d="M 4.117578,5.5562498 H 4.3821613 V 5.8208331 H 4.117578"
         id="path180" /><path
         style="fill:#000000;fill-opacity:0"
         d="M 3.8529947,5.5562498 H 4.117578 V 5.8208331 H 3.8529947"
         id="path179" /><path
         style="fill:#000000;fill-opacity:0"
         d="M 7.8217445,5.2916664 H 8.0863278 V 5.5562498 H 7.8217445"
         id="path178" /><path
         style="fill:#000000;fill-opacity:1"
         d="M 7.5571612,5.2916664 H 7.8217445 V 5.5562498 H 7.5571612"
         id="path177" /><path
         style="fill:#000000;fill-opacity:1"
         d="M 7.3587237,5.3578123 7.5571612,5.2916664 V 5.5562498 H 7.2925778"
         id="path176" /><path
         style="fill:#000000;fill-opacity:1"
         d="M 7.0279945,5.2916664 7.226432,5.2255206 7.3587237,5.3578123 7.2925778,5.5562498 H 7.0279945"
         id="path175" /><path
         style="fill:#000000;fill-opacity:1"
         d="M 6.7634112,5.2916664 H 7.0279945 V 5.5562498 H 6.7634112"
         id="path174" /><path
         style="fill:#000000;fill-opacity:1"
         d="M 6.4988279,5.2916664 H 6.7634112 V 5.5562498 H 6.4988279"
         id="path173" /><path
         style="fill:#000000;fill-opacity:1"
         d="M 6.3003904,5.3578123 6.4988279,5.2916664 V 5.5562498 L 6.3003904,5.6223956 6.1680987,5.4901039"
         id="path172" /><path
         style="fill:#e8c410;fill-opacity:1"
         d="M 5.9696612,5.2916664 6.1680987,5.2255206 6.3003904,5.3578123 6.1680987,5.4901039 5.9696612,5.5562498"
         id="path171" /><path
         style="fill:#e8c018;fill-opacity:1"
         d="M 5.7050779,5.2916664 H 5.9696612 V 5.5562498 L 5.7712237,5.6223956 5.6389321,5.4901039"
         id="path170" /><path
         style="fill:#e8c018;fill-opacity:1"
         d="M 5.4404946,5.2916664 H 5.7050779 L 5.6389321,5.4901039 5.4404946,5.5562498"
         id="path169" /><path
         style="fill:#e8c018;fill-opacity:1"
         d="M 5.1759113,5.2916664 H 5.4404946 V 5.5562498 H 5.1759113"
         id="path168" /><path
         style="fill:#e8c018;fill-opacity:1"
         d="M 4.911328,5.2916664 H 5.1759113 V 5.5562498 H 4.911328"
         id="path167" /><path
         style="fill:#746838;fill-opacity:1"
         d="M 4.6467446,5.2916664 H 4.911328 V 5.5562498 H 4.6467446"
         id="path166" /><path
         style="fill:#000000;fill-opacity:1"
         d="M 4.3821613,5.2916664 H 4.6467446 V 5.5562498 H 4.3821613"
         id="path165" /><path
         style="fill:#000000;fill-opacity:1"
         d="M 4.117578,5.2916664 H 4.3821613 V 5.5562498 H 4.117578"
         id="path164" /><path
         style="fill:#000000;fill-opacity:0"
         d="M 3.8529947,5.2916664 H 4.117578 V 5.5562498 H 3.8529947"
         id="path163" /><path
         style="fill:#000000;fill-opacity:0"
         d="M 7.8217445,5.0270831 H 8.0863278 V 5.2916664 H 7.8217445"
         id="path162" /><path
         style="fill:#000000;fill-opacity:1"
         d="M 7.5571612,5.0270831 H 7.8217445 V 5.2916664 H 7.5571612"
         id="path161" /><path
         style="fill:#000000;fill-opacity:1"
         d="M 7.2925778,5.0270831 H 7.5571612 V 5.2916664 L 7.3587237,5.3578123 7.226432,5.2255206"
         id="path160" /><path
         style="fill:#a08870;fill-opacity:1"
         d="M 7.0279945,5.0270831 H 7.2925778 L 7.226432,5.2255206 7.0279945,5.2916664"
         id="path159" /><path
         style="fill:#e8c410;fill-opacity:1"
         d="M 6.7634112,5.0270831 H 7.0279945 V 5.2916664 H 6.7634112"
         id="path158" /><path
         style="fill:#e8c410;fill-opacity:1"
         d="M 6.4988279,5.0270831 H 6.7634112 V 5.2916664 H 6.4988279"
         id="path157" /><path
         style="fill:#e8c410;fill-opacity:1"
         d="M 6.2342446,5.0270831 H 6.4988279 V 5.2916664 L 6.3003904,5.3578123 6.1680987,5.2255206"
         id="path156" /><path
         style="fill:#e8c410;fill-opacity:1"
         d="M 5.9696612,5.0270831 H 6.2342446 L 6.1680987,5.2255206 5.9696612,5.2916664"
         id="path155" /><path
         style="fill:#e8c018;fill-opacity:1"
         d="M 5.7050779,5.0270831 H 5.9696612 V 5.2916664 H 5.7050779"
         id="path154" /><path
         style="fill:#e8c018;fill-opacity:1"
         d="M 5.4404946,5.0270831 H 5.7050779 V 5.2916664 H 5.4404946"
         id="path153" /><path
         style="fill:#e8c018;fill-opacity:1"
         d="M 5.1759113,5.0270831 H 5.4404946 V 5.2916664 H 5.1759113"
         id="path152" /><path
         style="fill:#e8c018;fill-opacity:1"
         d="M 4.911328,5.0270831 H 5.1759113 V 5.2916664 H 4.911328"
         id="path151" /><path
         style="fill:#e8d070;fill-opacity:1"
         d="M 4.6467446,5.0270831 H 4.911328 V 5.2916664 H 4.6467446"
         id="path150" /><path
         style="fill:#000000;fill-opacity:1"
         d="M 4.3821613,5.0270831 H 4.6467446 V 5.2916664 H 4.3821613"
         id="path149" /><path
         style="fill:#000000;fill-opacity:1"
         d="M 4.117578,5.0270831 H 4.3821613 V 5.2916664 H 4.117578"
         id="path148" /><path
         style="fill:#000000;fill-opacity:0"
         d="M 3.8529947,5.0270831 H 4.117578 V 5.2916664 H 3.8529947"
         id="path147" /><path
         style="fill:#000000;fill-opacity:0"
         d="M 7.8217445,4.7624998 H 8.0863278 V 5.0270831 H 7.8217445"
         id="path146" /><path
         style="fill:#000000;fill-opacity:1"
         d="M 7.5571612,4.7624998 H 7.8217445 V 5.0270831 H 7.5571612"
         id="path145" /><path
         style="fill:#000000;fill-opacity:1"
         d="M 7.226432,4.8286456 7.3587237,4.696354 7.5571612,4.7624998 V 5.0270831 H 7.2925778"
         id="path144" /><path
         style="fill:#a08870;fill-opacity:1"
         d="M 7.0279945,4.7624998 7.226432,4.8286458 7.292578,5.0270833 H 7.0279945"
         id="path143" /><path
         style="fill:#e8c410;fill-opacity:1"
         d="M 6.7634112,4.7624998 H 7.0279945 V 5.0270831 H 6.7634112"
         id="path142" /><path
         style="fill:#e8c410;fill-opacity:1"
         d="M 6.4988279,4.7624998 H 6.7634112 V 5.0270831 H 6.4988279"
         id="path141" /><path
         style="fill:#e8c410;fill-opacity:1"
         d="M 6.2342446,4.7624998 H 6.4988279 V 5.0270831 H 6.2342446"
         id="path140" /><path
         style="fill:#e8c410;fill-opacity:1"
         d="M 5.9696612,4.7624998 H 6.2342446 V 5.0270831 H 5.9696612"
         id="path139" /><path
         style="fill:#e8c018;fill-opacity:1"
         d="M 5.7050779,4.7624998 H 5.9696612 V 5.0270831 H 5.7050779"
         id="path138" /><path
         style="fill:#e8c018;fill-opacity:1"
         d="M 5.4404946,4.7624998 H 5.7050779 V 5.0270831 H 5.4404946"
         id="path137" /><path
         style="fill:#e8c018;fill-opacity:1"
         d="M 5.1759113,4.7624998 H 5.4404946 V 5.0270831 H 5.1759113"
         id="path136" /><path
         style="fill:#e8c018;fill-opacity:1"
         d="M 4.911328,4.7624998 H 5.1759113 V 5.0270831 H 4.911328"
         id="path135" /><path
         style="fill:#e8d070;fill-opacity:1"
         d="M 4.6467446,4.7624998 H 4.911328 V 5.0270831 H 4.6467446"
         id="path134" /><path
         style="fill:#000000;fill-opacity:1"
         d="M 4.3821613,4.7624998 H 4.6467446 V 5.0270831 H 4.3821613"
         id="path133" /><path
         style="fill:#000000;fill-opacity:1"
         d="M 4.117578,4.7624998 H 4.3821613 V 5.0270831 H 4.117578"
         id="path132" /><path
         style="fill:#000000;fill-opacity:0"
         d="M 3.8529947,4.7624998 H 4.117578 V 5.0270831 H 3.8529947"
         id="path131" /><path
         style="fill:#000000;fill-opacity:0"
         d="M 7.8217445,4.4979165 H 8.0863278 V 4.7624998 H 7.8217445"
         id="path130" /><path
         style="fill:#000000;fill-opacity:1"
         d="M 7.5571612,4.4979165 H 7.8217445 V 4.7624998 H 7.5571612"
         id="path129" /><path
         style="fill:#000000;fill-opacity:1"
         d="M 7.2925778,4.4979165 H 7.5571612 V 4.7624998 L 7.3587237,4.696354"
         id="path128" /><path
         style="fill:#000000;fill-opacity:1"
         d="M 7.0279945,4.4979165 H 7.2925778 L 7.3587237,4.696354 7.226432,4.8286456 7.0279945,4.7624998"
         id="path127" /><path
         style="fill:#080000;fill-opacity:1"
         d="M 6.6972654,4.5640623 6.829557,4.4317707 7.0279945,4.4979165 V 4.7624998 H 6.7634112"
         id="path126" /><path
         style="fill:#e8c060;fill-opacity:1"
         d="M 6.432682,4.5640623 6.5649737,4.4317707 6.6972654,4.5640623 6.7634112,4.7624998 H 6.4988279"
         id="path125" /><path
         style="fill:#e8c060;fill-opacity:1"
         d="M 6.2342446,4.4979165 6.432682,4.5640625 6.498828,4.7625 H 6.2342446"
         id="path124" /><path
         style="fill:#e8c060;fill-opacity:1"
         d="M 5.9696612,4.4979165 H 6.2342446 V 4.7624998 H 5.9696612"
         id="path123" /><path
         style="fill:#f0bc10;fill-opacity:1"
         d="M 5.7050779,4.4979165 H 5.9696612 V 4.7624998 H 5.7050779"
         id="path122" /><path
         style="fill:#f0bc10;fill-opacity:1"
         d="M 5.4404946,4.4979165 H 5.7050779 V 4.7624998 H 5.4404946"
         id="path121" /><path
         style="fill:#f0bc10;fill-opacity:1"
         d="M 5.1759113,4.4979165 H 5.4404946 V 4.7624998 H 5.1759113"
         id="path120" /><path
         style="fill:#f0bc10;fill-opacity:1"
         d="M 4.911328,4.4979165 H 5.1759113 V 4.7624998 H 4.911328"
         id="path119" /><path
         style="fill:#e0c868;fill-opacity:1"
         d="M 4.7128905,4.5640623 4.911328,4.4979165 V 4.7624998 H 4.6467446"
         id="path118" /><path
         style="fill:#000000;fill-opacity:1"
         d="M 4.3821613,4.4979165 4.5805988,4.4317707 4.7128905,4.5640623 4.6467446,4.7624998 H 4.3821613"
         id="path117" /><path
         style="fill:#000000;fill-opacity:1"
         d="M 4.117578,4.4979165 H 4.3821613 V 4.7624998 H 4.117578"
         id="path116" /><path
         style="fill:#000000;fill-opacity:0"
         d="M 3.8529947,4.4979165 H 4.117578 V 4.7624998 H 3.8529947"
         id="path115" /><path
         style="fill:#000000;fill-opacity:0"
         d="M 7.8217445,4.2333332 H 8.0863278 V 4.4979165 H 7.8217445"
         id="path114" /><path
         style="fill:#000000;fill-opacity:1"
         d="M 7.5571612,4.2333332 H 7.8217445 V 4.4979165 H 7.5571612"
         id="path113" /><path
         style="fill:#000000;fill-opacity:1"
         d="M 7.2925778,4.2333332 H 7.5571612 V 4.4979165 H 7.2925778"
         id="path112" /><path
         style="fill:#000000;fill-opacity:1"
         d="M 7.0279945,4.2333332 H 7.2925778 V 4.4979165 H 7.0279945"
         id="path111" /><path
         style="fill:#080000;fill-opacity:1"
         d="M 6.7634112,4.2333332 H 7.0279945 V 4.4979165 L 6.829557,4.4317707"
         id="path110" /><path
         style="fill:#080000;fill-opacity:1"
         d="M 6.432682,4.299479 6.5649737,4.1671873 6.7634112,4.2333332 6.829557,4.4317707 6.6972654,4.5640623 6.5649737,4.4317707"
         id="path109" /><path
         style="fill:#e8c060;fill-opacity:1"
         d="M 6.1680987,4.299479 6.3003904,4.1671873 6.432682,4.299479 6.5649737,4.4317707 6.432682,4.5640623 6.2342446,4.4979165"
         id="path108" /><path
         style="fill:#e8c060;fill-opacity:1"
         d="m 5.9696612,4.2333332 0.1984375,0.066146 0.066146,0.1984375 H 5.9696612"
         id="path107" /><path
         style="fill:#f0bc10;fill-opacity:1"
         d="M 5.7050779,4.2333332 H 5.9696612 V 4.4979165 H 5.7050779"
         id="path106" /><path
         style="fill:#f0bc10;fill-opacity:1"
         d="M 5.4404946,4.2333332 H 5.7050779 V 4.4979165 H 5.4404946"
         id="path105" /><path
         style="fill:#f0bc10;fill-opacity:1"
         d="M 5.1759113,4.2333332 H 5.4404946 V 4.4979165 H 5.1759113"
         id="path104" /><path
         style="fill:#f0bc10;fill-opacity:1"
         d="M 4.911328,4.2333332 H 5.1759113 V 4.4979165 H 4.911328"
         id="path103" /><path
         style="fill:#000000;fill-opacity:1"
         d="M 4.6467446,4.2333332 H 4.911328 V 4.4979165 L 4.7128905,4.5640623 4.5805988,4.4317707"
         id="path102" /><path
         style="fill:#000000;fill-opacity:1"
         d="M 4.3821613,4.2333332 H 4.6467446 L 4.5805988,4.4317707 4.3821613,4.4979165"
         id="path101" /><path
         style="fill:#000000;fill-opacity:1"
         d="M 4.117578,4.2333332 H 4.3821613 V 4.4979165 H 4.117578"
         id="path100" /><path
         style="fill:#000000;fill-opacity:0"
         d="M 3.8529947,4.2333332 H 4.117578 V 4.4979165 H 3.8529947"
         id="path99" /><path
         style="fill:#000000;fill-opacity:0"
         d="M 7.8217445,3.9687499 H 8.0863278 V 4.2333332 H 7.8217445"
         id="path98" /><path
         style="fill:#000000;fill-opacity:0"
         d="M 7.5571612,3.9687499 H 7.8217445 V 4.2333332 H 7.5571612"
         id="path97" /><path
         style="fill:#000000;fill-opacity:0"
         d="M 7.2925778,3.9687499 H 7.5571612 V 4.2333332 H 7.2925778"
         id="path96" /><path
         style="fill:#000000;fill-opacity:1"
         d="M 7.0279945,3.9687499 H 7.2925778 V 4.2333332 H 7.0279945"
         id="path95" /><path
         style="fill:#080000;fill-opacity:1"
         d="M 6.829557,4.0348957 7.0279945,3.9687499 V 4.2333332 H 6.7634112"
         id="path94" /><path
         style="fill:#080000;fill-opacity:1"
         d="M 6.4988279,3.9687499 6.6972654,3.902604 6.829557,4.0348957 6.7634112,4.2333332 6.5649737,4.1671873"
         id="path93" /><path
         style="fill:#080000;fill-opacity:1"
         d="M 6.2342446,3.9687499 H 6.4988279 L 6.5649737,4.1671873 6.432682,4.299479 6.3003904,4.1671873"
         id="path92" /><path
         style="fill:#e8c060;fill-opacity:1"
         d="M 5.9696612,3.9687499 H 6.2342446 L 6.3003904,4.1671873 6.1680987,4.299479 5.9696612,4.2333332"
         id="path91" /><path
         style="fill:#f0bc10;fill-opacity:1"
         d="M 5.7050779,3.9687499 H 5.9696612 V 4.2333332 H 5.7050779"
         id="path90" /><path
         style="fill:#f0bc10;fill-opacity:1"
         d="M 5.4404946,3.9687499 H 5.7050779 V 4.2333332 H 5.4404946"
         id="path89" /><path
         style="fill:#f0bc10;fill-opacity:1"
         d="M 5.1759113,3.9687499 H 5.4404946 V 4.2333332 H 5.1759113"
         id="path88" /><path
         style="fill:#f0bc10;fill-opacity:1"
         d="M 4.911328,3.9687499 H 5.1759113 V 4.2333332 H 4.911328"
         id="path87" /><path
         style="fill:#000000;fill-opacity:1"
         d="M 4.6467446,3.9687499 H 4.911328 V 4.2333332 H 4.6467446"
         id="path86" /><path
         style="fill:#000000;fill-opacity:1"
         d="M 4.3821613,3.9687499 H 4.6467446 V 4.2333332 H 4.3821613"
         id="path85" /><path
         style="fill:#000000;fill-opacity:1"
         d="M 4.117578,3.9687499 H 4.3821613 V 4.2333332 H 4.117578"
         id="path84" /><path
         style="fill:#000000;fill-opacity:0"
         d="M 3.8529947,3.9687499 H 4.117578 V 4.2333332 H 3.8529947"
         id="path83" /><path
         style="fill:#000000;fill-opacity:0"
         d="M 7.8217445,3.7041665 H 8.0863278 V 3.9687499 H 7.8217445"
         id="path82" /><path
         style="fill:#000000;fill-opacity:0"
         d="M 7.5571612,3.7041665 H 7.8217445 V 3.9687499 H 7.5571612"
         id="path81" /><path
         style="fill:#000000;fill-opacity:0"
         d="M 7.2925778,3.7041665 H 7.5571612 V 3.9687499 H 7.2925778"
         id="path80" /><path
         style="fill:#000000;fill-opacity:1"
         d="M 7.0279945,3.7041665 H 7.2925778 V 3.9687499 H 7.0279945"
         id="path79" /><path
         style="fill:#080000;fill-opacity:1"
         d="M 6.7634112,3.7041665 H 7.0279945 V 3.9687499 L 6.829557,4.0348957 6.6972654,3.902604"
         id="path78" /><path
         style="fill:#9d8040;fill-opacity:1"
         d="M 6.4988279,3.7041665 H 6.7634112 L 6.6972654,3.902604 6.4988279,3.9687499"
         id="path77" /><path
         style="fill:#9d8040;fill-opacity:1"
         d="M 6.2342446,3.7041665 H 6.4988279 V 3.9687499 H 6.2342446"
         id="path76" /><path
         style="fill:#9d8040;fill-opacity:1"
         d="M 5.9696612,3.7041665 H 6.2342446 V 3.9687499 H 5.9696612"
         id="path75" /><path
         style="fill:#b03f05;fill-opacity:1"
         d="M 5.7050779,3.7041665 H 5.9696612 V 3.9687499 H 5.7050779"
         id="path74" /><path
         style="fill:#900000;fill-opacity:1"
         d="M 5.4404946,3.7041665 H 5.7050779 V 3.9687499 H 5.4404946"
         id="path73" /><path
         style="fill:#900000;fill-opacity:1"
         d="M 5.1759113,3.7041665 H 5.4404946 V 3.9687499 H 5.1759113"
         id="path72" /><path
         style="fill:#900000;fill-opacity:1"
         d="M 4.9774738,3.7703124 5.1759113,3.7041665 V 3.9687499 H 4.911328"
         id="path71" /><path
         style="fill:#000000;fill-opacity:1"
         d="M 4.6467446,3.7041665 4.8451821,3.6380207 4.9774738,3.7703124 4.911328,3.9687499 H 4.6467446"
         id="path70" /><path
         style="fill:#000000;fill-opacity:1"
         d="M 4.3821613,3.7041665 H 4.6467446 V 3.9687499 H 4.3821613"
         id="path69" /><path
         style="fill:#000000;fill-opacity:0"
         d="M 4.117578,3.7041665 H 4.3821613 V 3.9687499 H 4.117578"
         id="path68" /><path
         style="fill:#000000;fill-opacity:0"
         d="M 3.8529947,3.7041665 H 4.117578 V 3.9687499 H 3.8529947"
         id="path67" /><path
         style="fill:#000000;fill-opacity:0"
         d="M 7.8217445,3.4395832 H 8.0863278 V 3.7041665 H 7.8217445"
         id="path66" /><path
         style="fill:#000000;fill-opacity:0"
         d="M 7.5571612,3.4395832 H 7.8217445 V 3.7041665 H 7.5571612"
         id="path65" /><path
         style="fill:#000000;fill-opacity:0"
         d="M 7.2925778,3.4395832 H 7.5571612 V 3.7041665 H 7.2925778"
         id="path64" /><path
         style="fill:#000000;fill-opacity:1"
         d="M 7.0279945,3.4395832 H 7.2925778 V 3.7041665 H 7.0279945"
         id="path63" /><path
         style="fill:#000000;fill-opacity:1"
         d="M 6.7634112,3.4395832 H 7.0279945 V 3.7041665 H 6.7634112"
         id="path62" /><path
         style="fill:#d83000;fill-opacity:1"
         d="M 6.4988279,3.4395832 H 6.7634112 V 3.7041665 H 6.4988279"
         id="path61" /><path
         style="fill:#d83000;fill-opacity:1"
         d="M 6.3003904,3.505729 6.4988279,3.4395832 V 3.7041665 H 6.2342446"
         id="path60" /><path
         style="fill:#d83000;fill-opacity:1"
         d="M 5.9696612,3.4395832 6.1680987,3.3734374 6.3003904,3.505729 6.2342446,3.7041665 H 5.9696612"
         id="path59" /><path
         style="fill:#d83000;fill-opacity:1"
         d="M 5.7050779,3.4395832 H 5.9696612 V 3.7041665 H 5.7050779"
         id="path58" /><path
         style="fill:#d83000;fill-opacity:1"
         d="M 5.4404946,3.4395832 H 5.7050779 V 3.7041665 H 5.4404946"
         id="path57" /><path
         style="fill:#d83000;fill-opacity:1"
         d="M 5.2420571,3.505729 5.4404946,3.4395832 V 3.7041665 H 5.1759113"
         id="path56" /><path
         style="fill:#000000;fill-opacity:1"
         d="M 4.911328,3.4395832 5.1097654,3.3734374 5.2420571,3.505729 5.1759113,3.7041665 4.9774738,3.7703124 4.8451821,3.6380207"
         id="path55" /><path
         style="fill:#000000;fill-opacity:1"
         d="M 4.6467446,3.4395832 H 4.911328 L 4.845182,3.6380207 4.6467445,3.7041667"
         id="path54" /><path
         style="fill:#000000;fill-opacity:1"
         d="M 4.3821613,3.4395832 H 4.6467446 V 3.7041665 H 4.3821613"
         id="path53" /><path
         style="fill:#000000;fill-opacity:0"
         d="M 4.117578,3.4395832 H 4.3821613 V 3.7041665 H 4.117578"
         id="path52" /><path
         style="fill:#000000;fill-opacity:0"
         d="M 3.8529947,3.4395832 H 4.117578 V 3.7041665 H 3.8529947"
         id="path51" /><path
         style="fill:#000000;fill-opacity:0"
         d="M 7.8217445,3.1749999 H 8.0863278 V 3.4395832 H 7.8217445"
         id="path50" /><path
         style="fill:#000000;fill-opacity:0"
         d="M 7.5571612,3.1749999 H 7.8217445 V 3.4395832 H 7.5571612"
         id="path49" /><path
         style="fill:#000000;fill-opacity:0"
         d="M 7.2925778,3.1749999 H 7.5571612 V 3.4395832 H 7.2925778"
         id="path48" /><path
         style="fill:#000000;fill-opacity:1"
         d="M 7.0279945,3.1749999 H 7.2925778 V 3.4395832 H 7.0279945"
         id="path47" /><path
         style="fill:#000000;fill-opacity:1"
         d="M 6.6972654,3.2411457 6.829557,3.1088541 7.0279945,3.1749999 V 3.4395832 H 6.7634112"
         id="path46" /><path
         style="fill:#d83000;fill-opacity:1"
         d="m 6.4988279,3.1749999 0.1984375,0.066146 0.066146,0.1984375 H 6.4988279"
         id="path45" /><path
         style="fill:#d83000;fill-opacity:1"
         d="M 6.3003904,3.2411457 6.4988279,3.1749999 V 3.4395832 L 6.3003904,3.505729 6.1680987,3.3734374"
         id="path44" /><path
         style="fill:#000000;fill-opacity:1"
         d="M 5.9696612,3.1749999 6.1680987,3.1088541 6.3003904,3.2411457 6.1680987,3.3734374 5.9696612,3.4395832"
         id="path43" /><path
         style="fill:#000000;fill-opacity:1"
         d="M 5.7050779,3.1749999 H 5.9696612 V 3.4395832 H 5.7050779"
         id="path42" /><path
         style="fill:#000000;fill-opacity:1"
         d="M 5.4404946,3.1749999 H 5.7050779 V 3.4395832 H 5.4404946"
         id="path41" /><path
         style="fill:#000000;fill-opacity:1"
         d="M 5.1759113,3.1749999 H 5.4404946 V 3.4395832 L 5.2420571,3.505729 5.1097654,3.3734374"
         id="path40" /><path
         style="fill:#000000;fill-opacity:1"
         d="M 4.911328,3.1749999 H 5.1759113 L 5.1097654,3.3734374 4.911328,3.4395832"
         id="path39" /><path
         style="fill:#000000;fill-opacity:1"
         d="M 4.6467446,3.1749999 H 4.911328 V 3.4395832 H 4.6467446"
         id="path38" /><path
         style="fill:#000000;fill-opacity:1"
         d="M 4.3821613,3.1749999 H 4.6467446 V 3.4395832 H 4.3821613"
         id="path37" /><path
         style="fill:#000000;fill-opacity:0"
         d="M 4.117578,3.1749999 H 4.3821613 V 3.4395832 H 4.117578"
         id="path36" /><path
         style="fill:#000000;fill-opacity:0"
         d="M 3.8529947,3.1749999 H 4.117578 V 3.4395832 H 3.8529947"
         id="path35" /><path
         style="fill:#000000;fill-opacity:0"
         d="M 7.8217445,2.9104166 H 8.0863278 V 3.1749999 H 7.8217445"
         id="path34" /><path
         style="fill:#000000;fill-opacity:0"
         d="M 7.5571612,2.9104166 H 7.8217445 V 3.1749999 H 7.5571612"
         id="path33" /><path
         style="fill:#000000;fill-opacity:0"
         d="M 7.2925778,2.9104166 H 7.5571612 V 3.1749999 H 7.2925778"
         id="path32" /><path
         style="fill:#000000;fill-opacity:1"
         d="M 7.0279945,2.9104166 H 7.2925778 V 3.1749999 H 7.0279945"
         id="path31" /><path
         style="fill:#000000;fill-opacity:1"
         d="M 6.7634112,2.9104166 H 7.0279945 V 3.1749999 L 6.829557,3.1088541"
         id="path30" /><path
         style="fill:#000000;fill-opacity:1"
         d="M 6.4988279,2.9104166 H 6.7634112 L 6.829557,3.1088541 6.6972654,3.2411457 6.4988279,3.1749999"
         id="path29" /><path
         style="fill:#000000;fill-opacity:1"
         d="M 6.2342446,2.9104166 H 6.4988279 V 3.1749999 L 6.3003904,3.2411457 6.1680987,3.1088541"
         id="path28" /><path
         style="fill:#000000;fill-opacity:1"
         d="M 5.9696612,2.9104166 H 6.2342446 L 6.1680987,3.1088541 5.9696612,3.1749999"
         id="path27" /><path
         style="fill:#000000;fill-opacity:1"
         d="M 5.7050779,2.9104166 H 5.9696612 V 3.1749999 H 5.7050779"
         id="path26" /><path
         style="fill:#000000;fill-opacity:1"
         d="M 5.4404946,2.9104166 H 5.7050779 V 3.1749999 H 5.4404946"
         id="path25" /><path
         style="fill:#000000;fill-opacity:1"
         d="M 5.1759113,2.9104166 H 5.4404946 V 3.1749999 H 5.1759113"
         id="path24" /><path
         style="fill:#000000;fill-opacity:1"
         d="M 4.911328,2.9104166 H 5.1759113 V 3.1749999 H 4.911328"
         id="path23" /><path
         style="fill:#000000;fill-opacity:1"
         d="M 4.6467446,2.9104166 H 4.911328 V 3.1749999 H 4.6467446"
         id="path22" /><path
         style="fill:#000000;fill-opacity:0"
         d="M 4.3821613,2.9104166 H 4.6467446 V 3.1749999 H 4.3821613"
         id="path21" /><path
         style="fill:#000000;fill-opacity:0"
         d="M 4.117578,2.9104166 H 4.3821613 V 3.1749999 H 4.117578"
         id="path20" /><path
         style="fill:#000000;fill-opacity:0"
         d="M 3.8529947,2.9104166 H 4.117578 V 3.1749999 H 3.8529947"
         id="path19" /><path
         style="fill:#000000;fill-opacity:0"
         d="M 7.8217445,2.6458333 H 8.0863278 V 2.9104166 H 7.8217445"
         id="path18" /><path
         style="fill:#000000;fill-opacity:0"
         d="M 7.5571612,2.6458333 H 7.8217445 V 2.9104166 H 7.5571612"
         id="path17" /><path
         style="fill:#000000;fill-opacity:0"
         d="M 7.2925778,2.6458333 H 7.5571612 V 2.9104166 H 7.2925778"
         id="path16" /><path
         style="fill:#000000;fill-opacity:1"
         d="M 7.0279945,2.6458333 H 7.2925778 V 2.9104166 H 7.0279945"
         id="path15" /><path
         style="fill:#000000;fill-opacity:1"
         d="M 6.7634112,2.6458333 H 7.0279945 V 2.9104166 H 6.7634112"
         id="path14" /><path
         style="fill:#000000;fill-opacity:1"
         d="M 6.4988279,2.6458333 H 6.7634112 V 2.9104166 H 6.4988279"
         id="path13" /><path
         style="fill:#000000;fill-opacity:1"
         d="M 6.2342446,2.6458333 H 6.4988279 V 2.9104166 H 6.2342446"
         id="path12" /><path
         style="fill:#000000;fill-opacity:1"
         d="M 5.9696612,2.6458333 H 6.2342446 V 2.9104166 H 5.9696612"
         id="path11" /><path
         style="fill:#000000;fill-opacity:1"
         d="M 5.7050779,2.6458333 H 5.9696612 V 2.9104166 H 5.7050779"
         id="path10" /><path
         style="fill:#000000;fill-opacity:0"
         d="M 5.4404946,2.6458333 H 5.7050779 V 2.9104166 H 5.4404946"
         id="path9" /><path
         style="fill:#000000;fill-opacity:0"
         d="M 5.1759113,2.6458333 H 5.4404946 V 2.9104166 H 5.1759113"
         id="path8" /><path
         style="fill:#000000;fill-opacity:0"
         d="M 4.911328,2.6458333 H 5.1759113 V 2.9104166 H 4.911328"
         id="path7" /><path
         style="fill:#000000;fill-opacity:0"
         d="M 4.6467446,2.6458333 H 4.911328 V 2.9104166 H 4.6467446"
         id="path6" /><path
         style="fill:#000000;fill-opacity:0"
         d="M 4.3821613,2.6458333 H 4.6467446 V 2.9104166 H 4.3821613"
         id="path5" /><path
         style="fill:#000000;fill-opacity:0"
         d="M 4.117578,2.6458333 H 4.3821613 V 2.9104166 H 4.117578"
         id="path4" /><path
         style="fill:#000000;fill-opacity:0"
         d="M 3.8529947,2.6458333 H 4.117578 V 2.9104166 H 3.8529947"
         id="path3" /></g><rect
       style="fill:#d83000;fill-opacity:1;stroke-width:0.290245"
       id="rect532"
       width="1.1740885"
       height="0.95911455"
       x="4.3490882"
       y="0.90950519" /><rect
       style="fill:#d83000;fill-opacity:1;stroke-width:0.292218"
       id="rect532-1"
       width="1.8686198"
       height="0.6108458"
       x="2.5466149"
       y="1.3725259" /><rect
       style="fill:#e8c060;fill-opacity:1;stroke-width:0.163756"
       id="rect533"
       width="0.57877606"
       height="0.62838542"
       x="4.0597005"
       y="2.4722006" /><rect
       style="fill:#e8c060;fill-opacity:1;stroke-width:0.163756"
       id="rect533-6"
       width="0.57877606"
       height="0.62838542"
       x="4.600174"
       y="2.8489716" /><rect
       style="fill:#e8c060;fill-opacity:1;stroke-width:0.163756"
       id="rect533-6-2"
       width="0.57877606"
       height="0.62838542"
       x="5.1644197"
       y="3.3898313" /><rect
       style="fill:#a08870;fill-opacity:1;stroke-width:0.421712"
       id="rect534"
       width="0.48818448"
       height="0.9918415"
       x="6.0277634"
       y="3.9689317" /><rect
       style="fill:#e8d070;fill-opacity:1;stroke-width:0.14093"
       id="rect535"
       width="0.49976194"
       height="1.5940053"
       x="1.5336494"
       y="3.3652701" /><rect
       style="fill:#900000;fill-opacity:1;stroke-width:0.297148"
       id="rect536"
       width="0.53203338"
       height="0.47649145"
       x="2.0228963"
       y="1.9907403" /><rect
       style="fill:#9d8040;fill-opacity:1;stroke-width:0.21273"
       id="rect537"
       width="0.97565103"
       height="0.49173716"
       x="4.547956"
       y="1.986123" /><rect
       style="fill:#987c68;fill-opacity:1;stroke-width:0.0955667"
       id="rect538"
       width="0.4919596"
       height="0.50436205"
       x="1.5296224"
       y="5.9324546" /><rect
       style="fill:#e8c018;fill-opacity:1;stroke-width:0.257815"
       id="rect539"
       width="0.62173748"
       height="0.51449382"
       x="3.0267758"
       y="5.4378319" /><rect
       style="fill:#e8c018;fill-opacity:1;stroke-width:0.293113"
       id="rect539-5"
       width="0.80363852"
       height="0.51449382"
       x="3.6214843"
       y="5.0932293" /><rect
       style="fill:#e8c018;fill-opacity:1;stroke-width:0.249327"
       id="rect539-5-9"
       width="0.58147073"
       height="0.51449382"
       x="4.4481645"
       y="4.7420936" /><rect
       style="fill:#787a70;fill-opacity:1;stroke-width:0.12447"
       id="rect540"
       width="0.55502397"
       height="0.49678031"
       x="2.5274396"
       y="5.9510493" /></g></svg>
